<svg width="360" height="360" viewBox="0 0 360 360" fill="none" xmlns="http://www.w3.org/2000/svg">
<g clip-path="url(#clip0_125_23)">
<rect width="360" height="360" fill="#4F7F98"/>
<rect opacity="0.1" x="-127.49" y="19.8882" width="60.4433" height="438" transform="rotate(-20 -127.49 19.8882)" fill="white"/>
<rect opacity="0.1" x="-17" y="-19.327" width="60.4433" height="438" transform="rotate(-20 -17 -19.327)" fill="white"/>
<rect opacity="0.1" x="121.49" y="-78.5423" width="60.4433" height="493.22" transform="rotate(-20 121.49 -78.5423)" fill="white"/>
<rect opacity="0.1" x="248.98" y="-127.758" width="60.4433" height="438" transform="rotate(-20 248.98 -127.758)" fill="white"/>
<rect x="111.545" y="116.364" width="90.909" height="127.273" fill="#729CB2"/>
<rect x="111.545" y="234.545" width="90.909" height="9.0909" fill="#47697A"/>
<rect x="111.545" y="116.364" width="90.909" height="9.0909" fill="#47697A"/>
<rect x="102.454" y="107.273" width="109.091" height="9.0909" fill="black"/>
<rect x="93.3638" y="116.364" width="18.1818" height="9.0909" fill="black"/>
<rect width="18.1818" height="9.0909" transform="matrix(-1 0 0 1 220.636 116.364)" fill="black"/>
<rect width="18.1818" height="9.0909" transform="matrix(1 0 0 -1 93.3638 243.636)" fill="black"/>
<rect width="9.0909" height="9.0909" transform="matrix(1 0 0 -1 111.545 261.818)" fill="black"/>
<rect x="111.545" y="98.1818" width="9.0909" height="9.0909" fill="black"/>
<rect width="9.0909" height="18.1818" transform="matrix(1 0 0 -1 193.364 270.909)" fill="black"/>
<rect x="193.364" y="89.0909" width="9.0909" height="18.1818" fill="black"/>
<rect width="9.0909" height="9.0909" transform="matrix(1 0 0 -1 120.636 270.909)" fill="black"/>
<rect x="120.636" y="89.0909" width="9.0909" height="9.0909" fill="black"/>
<rect width="9.0909" height="9.0909" transform="matrix(1 0 0 -1 184.271 270.909)" fill="black"/>
<rect x="184.271" y="89.0909" width="9.0909" height="9.0909" fill="black"/>
<rect x="220.636" y="243.636" width="18.1818" height="9.0909" transform="rotate(180 220.636 243.636)" fill="black"/>
<rect x="84.2715" y="125.455" width="18.1818" height="9.0909" fill="black"/>
<rect width="18.1818" height="9.0909" transform="matrix(-1 0 0 1 229.728 125.455)" fill="black"/>
<rect width="18.1818" height="9.0909" transform="matrix(1 0 0 -1 84.2715 234.545)" fill="black"/>
<rect x="229.728" y="234.545" width="18.1818" height="9.0909" transform="rotate(180 229.728 234.545)" fill="black"/>
<rect x="75.1819" y="134.545" width="18.1818" height="9.0909" fill="black"/>
<rect width="18.1818" height="9.0909" transform="matrix(-1 0 0 1 238.818 134.545)" fill="black"/>
<rect width="18.1818" height="9.0909" transform="matrix(1 0 0 -1 75.1819 225.454)" fill="black"/>
<rect x="238.818" y="225.454" width="18.1818" height="9.0909" transform="rotate(180 238.818 225.454)" fill="black"/>
<rect x="66.0896" y="143.636" width="18.1818" height="9.0909" fill="black"/>
<rect width="18.1818" height="9.0909" transform="matrix(-1 0 0 1 247.91 143.636)" fill="black"/>
<rect width="18.1818" height="9.0909" transform="matrix(1 0 0 -1 66.0896 216.364)" fill="black"/>
<rect x="247.91" y="216.364" width="18.1818" height="9.0909" transform="rotate(180 247.91 216.364)" fill="black"/>
<rect x="266.09" y="216.364" width="9.0909" height="9.0909" transform="rotate(180 266.09 216.364)" fill="black"/>
<rect width="9.0909" height="9.0909" transform="matrix(-1 0 0 1 266.09 143.636)" fill="black"/>
<rect x="275.182" y="225.454" width="9.0909" height="9.0909" transform="rotate(180 275.182 225.454)" fill="black"/>
<rect width="9.0909" height="9.0909" transform="matrix(-1 0 0 1 275.182 134.545)" fill="black"/>
<rect width="9.0909" height="9.0909" transform="matrix(-1 0 0 1 293.362 161.818)" fill="black"/>
<rect width="9.0909" height="9.0909" transform="matrix(-1 0 0 1 293.362 189.091)" fill="black"/>
<rect width="9.0909" height="18.1818" transform="matrix(-1 0 0 1 284.273 170.909)" fill="black"/>
<rect width="9.0909" height="27.2727" transform="matrix(-1 0 0 1 302.453 134.545)" fill="black"/>
<rect width="9.0909" height="27.2727" transform="matrix(-1 0 0 1 302.453 198.182)" fill="black"/>
<rect width="18.1818" height="9.0909" transform="matrix(1 0 0 -1 275.182 234.545)" fill="black"/>
<rect x="275.182" y="125.455" width="18.1818" height="9.0909" fill="black"/>
<rect x="57" y="152.727" width="18.1818" height="9.0909" fill="black"/>
<rect width="18.1818" height="9.0909" transform="matrix(-1 0 0 1 257 152.727)" fill="black"/>
<rect width="18.1818" height="9.0909" transform="matrix(1 0 0 -1 57 207.273)" fill="black"/>
<rect x="257" y="207.273" width="18.1818" height="9.0909" transform="rotate(180 257 207.273)" fill="black"/>
<rect x="57" y="152.727" width="9.0909" height="45.4545" fill="black"/>
<rect x="102.454" y="243.636" width="109.091" height="9.0909" fill="black"/>
<rect x="129.728" y="270.909" width="63.6363" height="9.0909" fill="black"/>
<rect width="63.6363" height="9.0909" transform="matrix(1 0 0 -1 129.728 89.0909)" fill="black"/>
<rect x="120.636" y="98.1818" width="72.7272" height="9.0909" fill="#729CB2"/>
<rect width="72.7272" height="9.0909" transform="matrix(1 0 0 -1 120.636 261.818)" fill="#729CB2"/>
<rect x="129.728" y="89.0909" width="63.6363" height="9.0909" fill="#47697A"/>
<rect width="63.6363" height="9.0909" transform="matrix(1 0 0 -1 129.728 270.909)" fill="#47697A"/>
<rect x="102.454" y="125.455" width="9.0909" height="109.091" fill="#729CB2"/>
<rect width="9.0909" height="109.091" transform="matrix(-1 0 0 1 211.546 125.455)" fill="#729CB2"/>
<rect width="9.0909" height="27.2727" transform="matrix(-1 0 0 1 293.362 134.545)" fill="#47697A"/>
<rect width="9.0909" height="27.2727" transform="matrix(-1 0 0 1 293.362 198.182)" fill="#47697A"/>
<rect x="93.3638" y="134.545" width="9.0909" height="90.909" fill="#729CB2"/>
<rect width="9.0909" height="90.909" transform="matrix(-1 0 0 1 220.636 134.545)" fill="#729CB2"/>
<rect width="9.0909" height="36.3636" transform="matrix(-1 0 0 1 284.273 189.091)" fill="#729CB2"/>
<rect width="9.0909" height="36.3636" transform="matrix(-1 0 0 1 284.273 134.545)" fill="#729CB2"/>
<rect x="84.2715" y="143.636" width="9.0909" height="72.7272" fill="#729CB2"/>
<rect width="9.0909" height="72.7272" transform="matrix(-1 0 0 1 229.728 143.636)" fill="#729CB2"/>
<rect width="9.0909" height="72.7272" transform="matrix(-1 0 0 1 275.182 143.636)" fill="#729CB2"/>
<rect x="75.1819" y="152.727" width="9.0909" height="54.5454" fill="#729CB2"/>
<rect width="9.0909" height="54.5454" transform="matrix(-1 0 0 1 238.818 152.727)" fill="#729CB2"/>
<rect width="9.0909" height="54.5454" transform="matrix(-1 0 0 1 266.09 152.727)" fill="#729CB2"/>
<rect width="9.0909" height="9.0909" transform="matrix(-1 0 0 1 266.09 152.727)" fill="#47697A"/>
<rect x="266.09" y="207.273" width="9.0909" height="9.0909" transform="rotate(180 266.09 207.273)" fill="#47697A"/>
<rect width="9.0909" height="9.0909" transform="matrix(-1 0 0 1 275.182 143.636)" fill="#47697A"/>
<rect x="275.182" y="216.364" width="9.0909" height="9.0909" transform="rotate(180 275.182 216.364)" fill="#47697A"/>
<rect width="9.0909" height="9.0909" transform="matrix(-1 0 0 1 284.273 134.545)" fill="#47697A"/>
<rect x="284.273" y="225.454" width="9.0909" height="9.0909" transform="rotate(180 284.273 225.454)" fill="#47697A"/>
<rect x="66.0896" y="161.818" width="9.0909" height="36.3636" fill="#729CB2"/>
<rect width="9.0909" height="36.3636" transform="matrix(-1 0 0 1 247.91 161.818)" fill="black"/>
<rect width="9.0909" height="36.3636" transform="matrix(-1 0 0 1 257 161.818)" fill="#729CB2"/>
<rect x="97.9092" y="166.364" width="36.3636" height="9.0909" fill="#EBEBE6"/>
<rect x="97.9092" y="157.273" width="36.3636" height="9.0909" fill="#EBEBE6"/>
<rect x="102.456" y="166.364" width="27.2727" height="9.0909" fill="black"/>
<rect x="97.9092" y="175.455" width="36.3636" height="9.0909" fill="#EBEBE6"/>
<rect width="4.54545" height="9.0909" transform="matrix(-1 0 0 1 97.9092 175.455)" fill="#EBEBE6"/>
<rect width="4.54545" height="9.0909" transform="matrix(-1 0 0 1 97.9092 166.364)" fill="#EBEBE6"/>
<rect width="4.54545" height="9.0909" transform="matrix(-1 0 0 1 138.817 166.364)" fill="#EBEBE6"/>
<rect width="4.54545" height="9.0909" transform="matrix(-1 0 0 1 97.9092 184.546)" fill="#EBEBE6"/>
<rect width="4.54545" height="9.0909" transform="matrix(-1 0 0 1 138.817 184.546)" fill="#EBEBE6"/>
<rect width="4.54545" height="9.0909" transform="matrix(-1 0 0 1 138.817 175.455)" fill="#EBEBE6"/>
<rect x="97.9092" y="184.546" width="36.3636" height="9.0909" fill="#EBEBE6"/>
<rect x="97.9092" y="193.636" width="36.3636" height="9.0909" fill="#EBEBE6"/>
<rect x="102.456" y="184.546" width="27.2727" height="9.0909" fill="black"/>
<rect x="102.456" y="175.455" width="9.0909" height="9.0909" fill="black"/>
<rect x="120.638" y="175.455" width="9.0909" height="9.0909" fill="black"/>
<rect x="182.454" y="157.273" width="18.1818" height="9.0909" fill="black"/>
<rect x="173.364" y="166.364" width="9.0909" height="9.0909" fill="black"/>
<rect x="182.454" y="193.636" width="18.1818" height="9.0909" fill="black"/>
<rect x="173.364" y="184.546" width="9.0909" height="9.0909" fill="black"/>
<rect x="200.637" y="166.364" width="9.0909" height="27.2727" fill="black"/>
<rect x="191.546" y="166.364" width="9.0909" height="27.2727" fill="#47697A"/>
</g>
<defs>
<clipPath id="clip0_125_23">
<rect width="360" height="360" fill="white"/>
</clipPath>
</defs>
</svg>
